<?xml version="1.0" encoding="utf-8"?>
<!-- Generator: Adobe Illustrator 22.1.0, SVG Export Plug-In . SVG Version: 6.00 Build 0)  -->
<svg version="1.1" id="Layer_1" xmlns="http://www.w3.org/2000/svg" xmlns:xlink="http://www.w3.org/1999/xlink" x="0px" y="0px"
	 viewBox="0 0 595.3 841.9" style="enable-background:new 0 0 595.3 841.9;" xml:space="preserve">
<style type="text/css">
	.st0{fill:#1A1A1A;}
</style>
<polygon class="st0" points="184.1,427.5 174.7,418.1 197.4,395.4 170,368 202.1,335.9 211.5,345.3 188.8,368 216.2,395.4 "/>
<polygon class="st0" points="233.3,400.1 201.2,368 233.3,335.9 242.7,345.3 220,368 242.7,390.7 "/>
<polygon class="st0" points="152.9,427.5 143.5,418.1 166.2,395.4 143.5,372.7 152.9,363.3 185,395.4 "/>
<g>
	<path class="st0" d="M264,370c0.8,4.5,4.8,5.2,7.6,5.2c2.6,0,6.7-0.8,6.7-4.3c0-7.3-20.5-2.6-20.5-15.5c0-7.1,6.6-10.4,12.9-10.4
		c7.2,0,13.8,3.1,13.8,11.1l-7.3-1.1c-0.9-4-4.4-4.1-6.8-4.1c-2.4,0-5.2,1-5.2,3.9c0,2.6,1.6,3.1,10.3,5.2c2.6,0.6,10.2,2.2,10.2,10
		c0,6.3-4.9,11-14.3,11c-7.7,0-14.6-3.8-14.6-12.2L264,370z"/>
	<path class="st0" d="M295.1,380.2v-34.3h7.4v27.9h17.6v6.4H295.1z"/>
	<path class="st0" d="M329.6,345.8h7.6v34.4h-7.6V345.8z"/>
	<path class="st0" d="M346.6,345.8h14.8c8.9,0,15.6,5.6,15.6,17c0,10-5.1,17.4-15.6,17.4h-14.8V345.8z M354.1,373.9h6.7
		c4.4,0,8.6-2.7,8.6-10.3c0-6.9-2.5-11.4-9.9-11.4h-5.4V373.9z"/>
	<path class="st0" d="M393.8,373.9h19.4v6.4h-26.7v-34.5h25.1v6.4h-17.8v7.8h15.7v6.7h-15.7V373.9z"/>
</g>
<g>
	<path class="st0" d="M256.8,418v-22.5h4.9v18.3h11.6v4.2H256.8z"/>
	<path class="st0" d="M279.5,418l10.2-22.5h5l10.1,22.5H300l-2.2-5h-11.4l-2.4,5H279.5z M292.3,399.7l-3.8,8.7h7.5L292.3,399.7
		L292.3,399.7z"/>
	<path class="st0" d="M319.3,409.2l-8.3-13.8h5.6l5.3,8.9l5.2-8.9h5.5l-8.4,13.9v8.7h-5V409.2z"/>
	<path class="st0" d="M350.5,418.4c-6.4,0-11.7-5.2-11.7-11.7c0-6.5,5.2-11.7,11.7-11.7c6.4,0,11.7,5.2,11.7,11.7
		C362.1,413.2,356.9,418.4,350.5,418.4z M343.6,406.7c0,3.8,3.1,6.9,6.9,6.9c3.8,0,6.8-3.1,6.8-6.9c0-3.8-3.1-6.9-6.8-6.9
		C346.7,399.8,343.6,403,343.6,406.7z"/>
	<path class="st0" d="M387.6,409.2c0,6.1-3.6,9.1-9.6,9.1c-6.1,0-9.6-2.9-9.6-9.1v-14h5v14c0,2.5,0.6,4.9,4.6,4.9
		c3.5,0,4.7-1.5,4.7-4.9v-14h5V409.2z"/>
	<path class="st0" d="M400.9,399.6h-7.2v-4.1H413v4.2h-7.1V418h-5V399.6z"/>
</g>
</svg>
